# xmcd
# Track frame offsets:
# 150
# 11015
# 23282
# 32887
# 43995
# 53655
# 66727
# 76925
#
# Disc length: 1189 seconds
# Revision: 0
# Processed by: cddbd v1.5PL3 Copyright (c) Steve Scherf et al.
# Submitted via: VisiTrax 2.9.9.202 - For more info visit www.synapsa.com
#
DISCID=6104a308
DTITLE=Hank Locklin - Please help me I´ m Falling
DYEAR=1996
DGENRE=
TTITLE0=Please help me I´m falling
TTITLE1=It´s A Little More Like Heaven
TTITLE2=Flying South
TTITLE3=I Was Coming Home To You
TTITLE4=Geisha Girl
TTITLE5=Daytime Love Affair
TTITLE6=We´re Gonna Go Fishing
TTITLE7=From Here To There To You
EXTD=
EXTT0=
EXTT1=
EXTT2=
EXTT3=
EXTT4=
EXTT5=
EXTT6=
EXTT7=
PLAYORDER=
